#!OML:ASF H:\Terrain\Patient Classification 1\Terrain2\Thursday\justin.ASF
:FULLY-SPECIFIED
:DEGREES
1204
root -11.5035 17.2246 -22.2653 1098.92 -74.0507 -375.835
lowerback 0.609343 0.535093 4.37363
upperback 0.317363 0.687202 3.26651
thorax -0.00299727 0.323838 0.896811
lowerneck -14.1376 -2.5651 -9.81242
upperneck 24.7474 -2.04539 2.2238
head 10.4051 -1.7226 2.15489
rclavicle -4.97956e-014 -4.45278e-014
rhumerus -29.4283 -14.7434 -79.6257
rradius 23.0274
rwrist -8.13507
rhand -21.0733 12.6036
rfingers 7.12502
rthumb 5.30355 -17.31
lclavicle -4.97956e-014 -4.45278e-014
lhumerus -37.3138 4.37497 85.1999
lradius 32.3173
lwrist 1.7422
lhand -19.4971 23.4926
lfingers 7.12502
lthumb 6.82534 53.3626
rfemur -9.72315 -4.02178 27.3421
rtibia 28.6616
rfoot -19.0774 -3.80892
rtoes 15.1558
lfemur -10.7815 1.65193 -16.2866
ltibia 29.0219
lfoot -16.816 -1.91475
ltoes 10.1413
1205
root -11.5137 17.2192 -22.2599 1098.18 -74.2296 -375.271
lowerback 0.761664 0.587475 3.70709
upperback 0.403092 0.756938 3.49128
thorax -0.0113266 0.357342 1.49828
lowerneck -14.1239 -2.4155 -10.0086
upperneck 24.7352 -1.76773 2.1557
head 10.3828 -1.62177 2.19987
rclavicle 2.06736e-014 2.14687e-014
rhumerus -29.2652 -14.7335 -79.3032
rradius 22.8784
rwrist -7.53149
rhand -21.5458 12.5167
rfingers 7.12502
rthumb 4.84736 -17.4079
lclavicle 2.06736e-014 2.14687e-014
lhumerus -37.3897 5.00198 85.3929
lradius 32.1293
lwrist 1.10548
lhand -19.0836 23.6419
lfingers 7.12502
lthumb 7.22447 53.4986
rfemur -9.48629 -4.13383 27.0264
rtibia 28.7603
rfoot -19.1959 -3.41979
rtoes 16.0587
lfemur -10.4874 2.01617 -16.5084
ltibia 29.0438
lfoot -16.9166 -2.31489
ltoes 12.3037
1206
root -11.5137 17.2124 -22.2329 1097.33 -73.8366 -374.462
lowerback 0.756543 0.497615 3.9018
upperback 0.428055 0.638905 3.36056
thorax 0.0207448 0.300217 1.2561
lowerneck -14.4729 -2.40789 -9.77328
upperneck 25.1879 -1.74232 2.00256
head 10.6107 -1.62075 2.11017
rclavicle -5.96354e-014 0
rhumerus -29.2823 -14.2143 -79.6448
rradius 23.0921
rwrist -8.193
rhand -21.7589 12.3468
rfingers 7.12502
rthumb 4.64157 -17.5824
lclavicle -5.96354e-014 0
lhumerus -37.4187 4.82783 85.4631
lradius 32.0191
lwrist 1.18112
lhand -19.0315 23.5194
lfingers 7.12502
lthumb 7.27473 53.3743
rfemur -9.4256 -4.53892 26.7869
rtibia 28.8606
rfoot -19.2875 -3.37831
rtoes 16.3908
lfemur -10.4393 1.74516 -16.722
ltibia 29.0339
lfoot -16.8749 -2.53502
ltoes 12.7166
1207
root -11.5158 17.2075 -22.2236 1097.48 -73.6772 -374.662
lowerback 0.79031 0.566504 3.65334
upperback 0.394169 0.728106 3.64476
thorax -0.039198 0.34115 1.6862
lowerneck -15.0258 -2.51734 -9.46492
upperneck 26.0457 -1.68849 1.1043
head 11.0314 -1.7074 1.73923
rclavicle -3.95085e-014 -8.74653e-015
rhumerus -29.4517 -13.1038 -79.5391
rradius 23.4041
rwrist -9.47649
rhand -21.9093 12.3294
rfingers 7.12502
rthumb 4.49636 -17.6029
lclavicle -3.95085e-014 -8.74653e-015
lhumerus -37.4866 4.82642 85.9587
lradius 31.8433
lwrist 1.49237
lhand -19.5984 22.9632
lfingers 7.12502
lthumb 6.72749 52.8363
rfemur -9.42264 -4.51421 26.8828
rtibia 28.9871
rfoot -19.4002 -3.68105
rtoes 16.2155
lfemur -10.3732 1.75524 -16.6138
ltibia 28.996
lfoot -16.8145 -2.87984
ltoes 12.6443
1208
root -11.5115 17.2089 -22.2067 1097.54 -73.2431 -374.683
lowerback 0.752781 0.444638 3.76934
upperback 0.362185 0.561081 3.82495
thorax -0.0510007 0.255307 1.80854
lowerneck -14.0707 -2.34006 -9.64427
upperneck 24.9378 -1.43649 0.881126
head 10.4218 -1.59748 1.72576
rclavicle -1.63003e-014 -3.57812e-014
rhumerus -29.3716 -12.866 -79.2467
rradius 23.2877
rwrist -9.32729
rhand -22.3357 12.3356
rfingers 7.12502
rthumb 4.0846 -17.605
lclavicle -1.63003e-014 -3.57812e-014
lhumerus -37.5772 5.05106 86.1401
lradius 31.7763
lwrist 1.55667
lhand -20.4747 22.2976
lfingers 7.12502
lthumb 5.8815 52.196
rfemur -9.53831 -4.28763 27.0407
rtibia 29.1227
rfoot -19.589 -4.48791
rtoes 15.5874
lfemur -10.4575 1.38669 -16.5046
ltibia 28.9439
lfoot -16.6492 -3.28432
ltoes 14.1559
1209
root -11.5063 17.206 -22.1891 1097.38 -72.7839 -374.509
lowerback 0.72814 0.362185 4.1453
upperback 0.417936 0.450683 3.66583
thorax 0.0249333 0.202763 1.43589
lowerneck -14.0992 -2.28089 -8.87776
upperneck 24.7606 -1.3783 0.268474
head 10.3463 -1.56288 1.38684
rclavicle 6.23687e-014 8.0309e-014
rhumerus -29.1301 -13.7065 -79.1574
rradius 22.9511
rwrist -8.05307
rhand -22.9436 12.4027
rfingers 7.12502
rthumb 3.49754 -17.5484
lclavicle 6.23687e-014 8.0309e-014
lhumerus -37.5455 5.13502 85.8541
lradius 31.8658
lwrist 1.00279
lhand -20.8213 22.2185
lfingers 7.12502
lthumb 5.54684 52.1259
rfemur -9.66788 -4.4978 27.1065
rtibia 29.3181
rfoot -19.6742 -4.90163
rtoes 14.2475
lfemur -10.5061 1.17881 -16.4457
ltibia 28.835
lfoot -16.4396 -3.80989
ltoes 15.3619
1210
root -11.5055 17.2023 -22.1756 1096.49 -72.5042 -373.682
lowerback 0.859403 0.467677 4.27586
upperback 0.492323 0.605806 3.26563
thorax 0.0339968 0.285439 0.949592
lowerneck -14.301 -2.47151 -8.00566
upperneck 24.8028 -1.78328 0.0546947
head 10.4033 -1.68934 1.11103
rclavicle -4.12478e-014 -4.77083e-014
rhumerus -29.0923 -14.588 -79.3845
rradius 22.882
rwrist -7.51743
rhand -22.7122 12.395
rfingers 7.12502
rthumb 3.72101 -17.5522
lclavicle -4.12478e-014 -4.77083e-014
lhumerus -37.3444 4.68762 85.4616
lradius 31.8002
lwrist 0.635416
lhand -20.724 22.5107
lfingers 7.12502
lthumb 5.64081 52.4157
rfemur -9.71817 -5.20192 26.8386
rtibia 29.5851
rfoot -19.7397 -4.65791
rtoes 13.4605
lfemur -10.3693 1.25058 -16.6137
ltibia 28.6563
lfoot -16.209 -4.52581
ltoes 16.854
1211
root -11.507 17.2058 -22.164 1095.43 -72.2705 -372.689
lowerback 0.979102 0.539712 4.20839
upperback 0.508428 0.713143 3.07055
thorax -0.0135982 0.340733 0.7848
lowerneck -14.1053 -2.56994 -8.26624
upperneck 24.7307 -1.98814 0.490062
head 10.3547 -1.7531 1.28477
rclavicle 2.0276e-014 -6.36111e-015
rhumerus -29.2097 -14.4001 -79.4926
rradius 23.1264
rwrist -8.16814
rhand -21.7376 12.3929
rfingers 7.12502
rthumb 4.66212 -17.5358
lclavicle 2.0276e-014 -6.36111e-015
lhumerus -37.341 4.39202 85.4027
lradius 31.8369
lwrist 1.23536
lhand -20.0056 22.4228
lfingers 7.12502
lthumb 6.33437 52.3081
rfemur -9.72274 -5.18613 26.5774
rtibia 29.8634
rfoot -19.8 -5.18288
rtoes 13.2934
lfemur -10.1943 1.21638 -16.8553
ltibia 28.4911
lfoot -15.9978 -5.14742
ltoes 18.0997
1212
root -11.5096 17.2116 -22.1604 1095.16 -72.0341 -372.448
lowerback 1.00184 0.601477 3.83377
upperback 0.515611 0.78967 3.35064
thorax -0.0268303 0.37615 1.28075
lowerneck -14.0378 -2.58891 -8.94292
upperneck 24.8383 -1.92239 0.75086
head 10.3926 -1.76025 1.49939
rclavicle 4.15957e-014 2.14687e-014
rhumerus -29.1731 -14.123 -79.0437
rradius 23.2513
rwrist -8.38782
rhand -21.4778 12.3138
rfingers 7.12502
rthumb 4.91302 -17.6092
lclavicle 4.15957e-014 2.14687e-014
lhumerus -37.4229 4.33947 85.9542
lradius 31.9395
lwrist 1.96584
lhand -19.0596 22.4784
lfingers 7.12502
lthumb 7.24762 52.3342
rfemur -9.76083 -4.69593 26.6403
rtibia 30.1167
rfoot -19.903 -6.06581
rtoes 13.2308
lfemur -10.0644 1.03768 -16.8372
ltibia 28.385
lfoot -15.9729 -5.46811
ltoes 17.3717
1213
root -11.5103 17.2111 -22.1534 1095.21 -71.7253 -372.484
lowerback 0.962378 0.594867 3.60734
upperback 0.537194 0.771343 3.59881
thorax 0.0109391 0.364944 1.66333
lowerneck -14.3191 -2.53404 -9.02861
upperneck 25.1116 -1.74444 0.569861
head 10.5399 -1.71743 1.47005
rclavicle -2.55438e-014 -7.95139e-015
rhumerus -28.9398 -14.121 -78.8816
rradius 23.2529
rwrist -8.38803
rhand -22.144 11.9368
rfingers 7.12502
rthumb 4.26968 -18.0001
lclavicle -2.55438e-014 -7.95139e-015
lhumerus -37.347 4.05504 86.4523
lradius 31.9312
lwrist 2.5275
lhand -18.2445 22.973
lfingers 7.12502
lthumb 8.03432 52.8003
rfemur -9.90787 -4.46178 26.7612
rtibia 30.4311
rfoot -20.1903 -6.63385
rtoes 12.4177
lfemur -10.0441 0.945802 -16.7034
ltibia 28.319
lfoot -16.0074 -5.9269
ltoes 17.424
1214
root -11.5016 17.2091 -22.1263 1094.94 -71.0879 -372.106
lowerback 0.849129 0.419759 3.85911
upperback 0.507332 0.53262 3.62852
thorax 0.046705 0.245645 1.55615
lowerneck -14.4609 -2.37095 -8.8951
upperneck 25.2435 -1.45012 0.261264
head 10.5984 -1.61227 1.37534
rclavicle -8.00108e-015 -1.98785e-014
rhumerus -28.8759 -12.7733 -79.3051
rradius 23.5688
rwrist -9.80132
rhand -22.4893 11.6795
rfingers 7.12502
rthumb 3.9363 -18.2638
lclavicle -8.00108e-015 -1.98785e-014
lhumerus -37.329 3.96508 86.6307
lradius 31.9905
lwrist 2.83147
lhand -17.7362 23.1776
lfingers 7.12502
lthumb 8.52492 52.9855
rfemur -10.1856 -4.80974 26.7119
rtibia 30.73
rfoot -20.4064 -6.99968
rtoes 11.2541
lfemur -10.2638 0.945498 -16.7198
ltibia 28.2585
lfoot -15.8626 -6.81621
ltoes 17.5908
1215
root -11.51 17.1836 -22.159 1094.94 -72.0982 -373.126
lowerback 1.86534 0.995352 3.27385
upperback 0.84185 1.33662 3.75466
thorax -0.195515 0.64429 1.99197
lowerneck -14.2572 -2.47809 -8.86203
upperneck 25.0758 -1.64773 0.328571
head 10.5064 -1.68385 1.36946
rclavicle 4.09993e-014 2.54444e-014
rhumerus -29.1646 -11.3175 -79.5488
rradius 24.1594
rwrist -11.5827
rhand -21.4309 11.9581
rfingers 7.12502
rthumb 4.9583 -17.9639
lclavicle 4.09993e-014 2.54444e-014
lhumerus -37.3911 3.60588 86.9397
lradius 32.0824
lwrist 2.64071
lhand -18.9046 22.8733
lfingers 7.12502
lthumb 7.39727 52.7239
rfemur -9.15227 -3.76646 26.8274
rtibia 30.945
rfoot -20.5236 -7.34365
rtoes 10.6227
lfemur -9.07295 2.54162 -16.4378
ltibia 28.3658
lfoot -16.2932 -7.6548
ltoes 15.9278
